<?xml version="1.0" encoding="utf-8"?>
<!-- Generator: Adobe Illustrator 24.3.0, SVG Export Plug-In . SVG Version: 6.00 Build 0)  -->
<svg version="1.1" id="Ebene_1" xmlns="http://www.w3.org/2000/svg" xmlns:xlink="http://www.w3.org/1999/xlink" x="0px" y="0px"
	 viewBox="0 0 251.82 96" style="enable-background:new 0 0 251.82 96;" xml:space="preserve">
<style type="text/css">
	.st0{fill:#A8C813;}
	.st1{fill:#36A9E1;}
	.st2{fill:#FFFFFF;}
</style>
<g>
	<path class="st0" d="M245.64,70.47h-17.07V50.89h17.07c2.18,0,3.96,1.78,3.96,3.96v11.67C249.6,68.69,247.82,70.47,245.64,70.47z"
		/>
	<path class="st0" d="M46.84,92.62C22.24,92.62,2.22,72.61,2.22,48S22.24,3.38,46.84,3.38l3.75,0v12.16l-3.75,0
		c-17.9,0-32.46,14.56-32.46,32.46s14.56,32.46,32.46,32.46c11.48,0,22.22-6.18,28.04-16.14c0.56-0.95,1.11-2.04,1.67-3.31l0.35-0.8
		H57.65v-8.91h33.49v1.54l-0.1,1.33l0,0l-0.14,0.88c-0.47,2.97-1.24,5.93-2.31,8.78C82.04,81.32,65.65,92.62,46.84,92.62z"/>
	<polygon class="st1" points="78.08,44.25 78.08,15.54 57.68,15.58 57.68,3.42 109.75,3.38 109.75,15.54 91.14,15.54 91.14,44.25 	
		"/>
	<path class="st0" d="M110.05,33.64h9.27v0.2c0,2.27-0.81,5.71-2.88,7.87c-2.07,2.16-4.45,2.55-6.66,2.55
		c-2.24,0-4.65-0.36-6.83-2.6c-1.09-1.12-2.74-3.39-2.74-7.11c0-3.05,1.12-5.49,2.69-7.08c2.3-2.38,5.12-2.72,7.34-2.72
		c1.54,0,3.5,0.25,5.24,1.4c1.26,0.84,2.35,2.16,3.02,3.33l-3.89,2.1c-0.36-0.73-0.92-1.48-1.65-2.02c-0.84-0.62-1.79-0.9-2.86-0.9
		c-1.71,0-2.97,0.56-3.86,1.51c-1.04,1.09-1.6,2.69-1.6,4.42c0,2.13,0.78,3.5,1.57,4.28c1.09,1.12,2.35,1.46,3.78,1.46
		c1.85,0,2.83-0.64,3.25-1.01c0.14-0.11,0.98-0.84,1.34-2.21h-4.51V33.64z"/>
	<path class="st0" d="M134.6,38.29h-9.32c0,0.67,0.25,1.57,0.76,2.13c0.62,0.67,1.46,0.78,2.07,0.78c0.59,0,1.2-0.11,1.62-0.36
		c0.06-0.03,0.53-0.34,0.87-1.04l3.81,0.39c-0.56,1.76-1.68,2.69-2.41,3.14c-1.2,0.73-2.55,0.92-3.95,0.92
		c-1.88,0-3.53-0.34-4.98-1.79c-1.09-1.09-1.88-2.74-1.88-4.82c0-1.79,0.64-3.64,1.9-4.93c1.51-1.51,3.39-1.79,4.79-1.79
		s3.42,0.25,4.96,1.88c1.48,1.57,1.76,3.53,1.76,5.07V38.29z M130.88,35.88c-0.03-0.11-0.22-0.9-0.81-1.46
		c-0.45-0.42-1.09-0.7-1.9-0.7c-1.04,0-1.65,0.42-2.04,0.81c-0.31,0.34-0.59,0.78-0.7,1.34H130.88z"/>
	<path class="st0" d="M144.51,34.54c-0.62-0.36-1.43-0.7-2.21-0.7c-0.42,0-0.9,0.11-1.15,0.36c-0.14,0.14-0.25,0.36-0.25,0.56
		c0,0.28,0.2,0.45,0.39,0.56c0.28,0.17,0.7,0.25,1.2,0.42l1.06,0.34c0.7,0.22,1.43,0.5,2.07,1.09c0.73,0.67,0.98,1.43,0.98,2.38
		c0,1.65-0.73,2.72-1.29,3.28c-1.23,1.23-2.74,1.43-4.06,1.43c-1.68,0-3.5-0.36-5.12-1.79l1.71-2.72c0.39,0.34,0.95,0.73,1.37,0.92
		c0.56,0.28,1.15,0.39,1.68,0.39c0.25,0,0.9,0,1.26-0.28c0.25-0.2,0.42-0.5,0.42-0.81c0-0.22-0.08-0.5-0.45-0.73
		c-0.28-0.17-0.64-0.28-1.23-0.45l-1.01-0.31c-0.73-0.22-1.48-0.62-2.02-1.15c-0.59-0.62-0.9-1.32-0.9-2.27
		c0-1.2,0.48-2.21,1.2-2.88c1.12-1.04,2.63-1.26,3.78-1.26c1.85,0,3.14,0.48,4.14,1.06L144.51,34.54z"/>
	<path class="st0" d="M152.8,31.34v6.89c0,0.56,0.06,1.43,0.7,2.02c0.28,0.25,0.78,0.59,1.68,0.59c0.76,0,1.34-0.25,1.71-0.59
		c0.59-0.56,0.67-1.4,0.67-2.02v-6.89h4.03v7.28c0,1.43-0.14,2.77-1.4,4c-1.43,1.4-3.53,1.62-5.01,1.62c-1.54,0-3.61-0.22-5.04-1.62
		c-1.15-1.12-1.37-2.38-1.37-3.75v-7.53H152.8z"/>
	<path class="st0" d="M163.75,31.34h4.03v1.48c1.23-1.57,2.69-1.82,3.86-1.82c1.09,0,2.52,0.2,3.58,1.26
		c1.18,1.18,1.26,2.66,1.26,3.67v7.9h-4.03v-6.41c0-0.81-0.03-1.85-0.67-2.49c-0.31-0.31-0.81-0.56-1.54-0.56
		c-0.84,0-1.37,0.34-1.68,0.67c-0.67,0.67-0.78,1.57-0.78,2.38v6.41h-4.03V31.34z"/>
	<path class="st0" d="M192.42,43.83h-4.03v-1.51c-0.62,0.9-1.74,1.93-3.95,1.93c-1.85,0-3.19-0.59-4.28-1.71
		c-1.29-1.29-1.96-3.08-1.96-5.01c0-2.07,0.76-3.78,1.96-4.93c1.09-1.04,2.63-1.68,4.34-1.68c1.37,0,2.88,0.45,3.89,1.82v-8.01h4.03
		V43.83z M183.32,35.24c-0.59,0.56-0.98,1.37-0.98,2.38c0,0.92,0.39,1.74,0.98,2.3c0.62,0.59,1.4,0.87,2.1,0.87
		c0.76,0,1.65-0.31,2.3-0.92c0.48-0.45,0.92-1.2,0.92-2.24c0-1.06-0.42-1.79-0.9-2.3c-0.64-0.67-1.4-0.92-2.27-0.92
		C184.67,34.4,183.97,34.62,183.32,35.24z"/>
	<path class="st0" d="M194.69,24.74h4.03v8.09c0.5-0.62,1.04-1.04,1.51-1.29c0.84-0.45,1.54-0.53,2.44-0.53
		c0.98,0,2.44,0.14,3.53,1.26c1.15,1.15,1.23,2.69,1.23,3.64v7.92h-4.03v-6.41c0-0.87-0.03-1.88-0.67-2.49
		c-0.36-0.36-0.98-0.56-1.57-0.56c-0.87,0-1.37,0.39-1.6,0.62c-0.81,0.78-0.84,1.99-0.84,2.6v6.24h-4.03V24.74z"/>
	<path class="st0" d="M222.52,38.29h-9.32c0,0.67,0.25,1.57,0.76,2.13c0.62,0.67,1.46,0.78,2.07,0.78c0.59,0,1.2-0.11,1.62-0.36
		c0.06-0.03,0.53-0.34,0.87-1.04l3.81,0.39c-0.56,1.76-1.68,2.69-2.41,3.14c-1.2,0.73-2.55,0.92-3.95,0.92
		c-1.88,0-3.53-0.34-4.98-1.79c-1.09-1.09-1.88-2.74-1.88-4.82c0-1.79,0.64-3.64,1.9-4.93c1.51-1.51,3.39-1.79,4.79-1.79
		s3.42,0.25,4.96,1.88c1.48,1.57,1.76,3.53,1.76,5.07V38.29z M218.8,35.88c-0.03-0.11-0.22-0.9-0.81-1.46
		c-0.45-0.42-1.09-0.7-1.9-0.7c-1.04,0-1.65,0.42-2.04,0.81c-0.31,0.34-0.59,0.78-0.7,1.34H218.8z"/>
	<path class="st0" d="M226.35,24.68c1.48-0.12,2.67,1.07,2.55,2.55c-0.09,1.11-1.03,2.05-2.14,2.14c-1.48,0.12-2.67-1.07-2.55-2.55
		C224.3,25.71,225.24,24.77,226.35,24.68z M228.57,31.34v12.49h-4.03V31.34H228.57z"/>
	<path class="st0" d="M235.88,34.59v9.24h-4.03v-9.24h-1.4v-3.25h1.4v-4.03h4.03v4.03h2.49v3.25H235.88z"/>
	<path class="st0" d="M247.5,34.54c-0.62-0.36-1.43-0.7-2.21-0.7c-0.42,0-0.9,0.11-1.15,0.36c-0.14,0.14-0.25,0.36-0.25,0.56
		c0,0.28,0.2,0.45,0.39,0.56c0.28,0.17,0.7,0.25,1.2,0.42l1.06,0.34c0.7,0.22,1.43,0.5,2.07,1.09c0.73,0.67,0.98,1.43,0.98,2.38
		c0,1.65-0.73,2.72-1.29,3.28c-1.23,1.23-2.74,1.43-4.06,1.43c-1.68,0-3.5-0.36-5.12-1.79l1.71-2.72c0.39,0.34,0.95,0.73,1.37,0.92
		c0.56,0.28,1.15,0.39,1.68,0.39c0.25,0,0.9,0,1.26-0.28c0.25-0.2,0.42-0.5,0.42-0.81c0-0.22-0.08-0.5-0.45-0.73
		c-0.28-0.17-0.64-0.28-1.23-0.45l-1.01-0.31c-0.73-0.22-1.48-0.62-2.02-1.15c-0.59-0.62-0.9-1.32-0.9-2.27
		c0-1.2,0.48-2.21,1.2-2.88c1.12-1.04,2.63-1.26,3.78-1.26c1.85,0,3.14,0.48,4.14,1.06L247.5,34.54z"/>
	<path class="st1" d="M110.74,54.98v15.04h-4.31V54.98h-5.87v-3.64h14.24v3.64H110.74z"/>
	<path class="st1" d="M117.51,51.07c2.13-0.87,4.05,1.06,3.18,3.19c-0.2,0.49-0.6,0.89-1.09,1.09c-2.13,0.87-4.05-1.06-3.18-3.18
		C116.61,51.67,117.02,51.27,117.51,51.07z M120.57,57.53v12.49h-4.03V57.53H120.57z"/>
	<path class="st1" d="M132.58,61.48c-0.98-0.81-1.99-0.95-2.63-0.95c-1.26,0-2.02,0.62-2.3,0.9c-0.53,0.53-0.92,1.34-0.92,2.35
		c0,0.92,0.34,1.71,0.84,2.24c0.62,0.67,1.54,1.01,2.44,1.01c0.7,0,1.65-0.2,2.58-0.98v3.64c-1.06,0.59-2.07,0.76-3.19,0.76
		c-2.1,0-3.7-0.76-4.84-1.88c-0.95-0.92-1.96-2.49-1.96-4.76c0-2.13,0.9-3.81,2.07-4.93c1.4-1.32,3.05-1.76,4.76-1.76
		c1.09,0,2.1,0.2,3.16,0.7V61.48z"/>
	<path class="st1" d="M139.16,51.34v10.78l4.54-4.59h5.29l-5.94,5.66l6.36,6.83h-5.43l-4.82-5.38v5.38h-4.03V51.34H139.16z"/>
	<path class="st1" d="M162.82,64.47h-9.32c0,0.67,0.25,1.57,0.76,2.13c0.62,0.67,1.46,0.78,2.07,0.78c0.59,0,1.2-0.11,1.62-0.36
		c0.06-0.03,0.53-0.34,0.87-1.04l3.81,0.39c-0.56,1.76-1.68,2.69-2.41,3.14c-1.2,0.73-2.55,0.92-3.95,0.92
		c-1.88,0-3.53-0.34-4.98-1.79c-1.09-1.09-1.88-2.74-1.88-4.82c0-1.79,0.64-3.64,1.9-4.93c1.51-1.51,3.39-1.79,4.79-1.79
		s3.42,0.25,4.96,1.88c1.48,1.57,1.76,3.53,1.76,5.07V64.47z M159.09,62.06c-0.03-0.11-0.22-0.9-0.81-1.46
		c-0.45-0.42-1.09-0.7-1.9-0.7c-1.04,0-1.65,0.42-2.04,0.81c-0.31,0.34-0.59,0.78-0.7,1.34H159.09z"/>
	<path class="st1" d="M169.23,60.78v9.24h-4.03v-9.24h-1.4v-3.25h1.4V53.5h4.03v4.03h2.49v3.25H169.23z"/>
	<path class="st1" d="M226.29,70.47h-43.05c-2.22,0-4.04-1.82-4.04-4.04v-11.5c0-2.22,1.82-4.04,4.04-4.04h43.05V70.47z"/>
	<g>
		<path class="st2" d="M186.34,55.86c0.62-0.11,1.47-0.2,2.63-0.2c1.26,0,2.19,0.27,2.79,0.77c0.56,0.46,0.92,1.2,0.92,2.09
			c0,0.9-0.28,1.64-0.81,2.14c-0.69,0.69-1.77,1.01-2.98,1.01c-0.32,0-0.62-0.01-0.84-0.06v3.56h-1.71V55.86z M188.04,60.26
			c0.21,0.06,0.49,0.07,0.84,0.07c1.29,0,2.07-0.63,2.07-1.74c0-1.05-0.73-1.61-1.92-1.61c-0.48,0-0.81,0.04-0.99,0.08V60.26z"/>
		<path class="st2" d="M196,55.74h1.72v8h3.88v1.44H196V55.74z"/>
		<path class="st2" d="M205.98,55.74v5.5c0,1.85,0.77,2.7,1.93,2.7c1.25,0,1.99-0.85,1.99-2.7v-5.5h1.72v5.39
			c0,2.91-1.5,4.2-3.77,4.2c-2.18,0-3.6-1.22-3.6-4.19v-5.41H205.98z"/>
		<path class="st2" d="M215.39,63.3c0.56,0.32,1.4,0.6,2.28,0.6c1.11,0,1.72-0.52,1.72-1.29c0-0.71-0.48-1.13-1.68-1.57
			c-1.55-0.56-2.55-1.39-2.55-2.75c0-1.54,1.29-2.72,3.33-2.72c1.02,0,1.78,0.22,2.27,0.48l-0.42,1.39
			c-0.34-0.18-0.99-0.45-1.88-0.45c-1.09,0-1.57,0.59-1.57,1.13c0,0.73,0.55,1.06,1.81,1.55c1.64,0.62,2.44,1.44,2.44,2.8
			c0,1.51-1.15,2.83-3.59,2.83c-0.99,0-2.03-0.28-2.55-0.59L215.39,63.3z"/>
	</g>
	<g>
		<path class="st2" d="M244.55,61.13c0,0.41-0.34,0.75-0.75,0.75h-3.25v3.25c0,0.41-0.34,0.75-0.75,0.75h-1.5
			c-0.41,0-0.75-0.34-0.75-0.75v-3.25h-3.25c-0.41,0-0.75-0.34-0.75-0.75v-1.5c0-0.41,0.34-0.75,0.75-0.75h3.25v-3.25
			c0-0.41,0.34-0.75,0.75-0.75h1.5c0.41,0,0.75,0.34,0.75,0.75v3.25h3.25c0.41,0,0.75,0.34,0.75,0.75V61.13z"/>
	</g>
</g>
</svg>
