<?xml version="1.0" encoding="utf-8"?>
<!-- Generator: Adobe Illustrator 24.3.0, SVG Export Plug-In . SVG Version: 6.00 Build 0)  -->
<svg version="1.1" id="Ebene_1" xmlns="http://www.w3.org/2000/svg" xmlns:xlink="http://www.w3.org/1999/xlink" x="0px" y="0px"
	 viewBox="0 0 251.82 96" style="enable-background:new 0 0 251.82 96;" xml:space="preserve">
<style type="text/css">
	.st0{fill:#A8C813;}
	.st1{fill:#36A9E1;}
	.st2{fill:#1D1D1B;}
	.st3{font-family:'FuturaPT-Book';}
	.st4{font-size:8px;}
</style>
<g>
	<path class="st0" d="M46.29,92.62C21.68,92.62,1.66,72.61,1.66,48S21.68,3.38,46.29,3.38l3.75,0v12.16l-3.75,0
		c-17.9,0-32.46,14.56-32.46,32.46s14.56,32.46,32.46,32.46c11.48,0,22.22-6.18,28.04-16.14c0.56-0.95,1.11-2.04,1.67-3.31l0.35-0.8
		H57.09v-8.91h33.49v1.54l-0.1,1.33l0,0l-0.14,0.88c-0.47,2.97-1.24,5.93-2.31,8.78C81.48,81.32,65.09,92.62,46.29,92.62z"/>
	<polygon class="st1" points="77.52,44.25 77.52,15.54 57.12,15.58 57.12,3.42 109.19,3.38 109.19,15.54 90.58,15.54 90.58,44.25 	
		"/>
	<path class="st0" d="M109.49,33.64h9.27v0.2c0,2.27-0.81,5.71-2.88,7.87c-2.07,2.16-4.45,2.55-6.66,2.55
		c-2.24,0-4.65-0.36-6.83-2.6c-1.09-1.12-2.74-3.39-2.74-7.11c0-3.05,1.12-5.49,2.69-7.08c2.3-2.38,5.12-2.72,7.34-2.72
		c1.54,0,3.5,0.25,5.24,1.4c1.26,0.84,2.35,2.16,3.02,3.33l-3.89,2.1c-0.36-0.73-0.92-1.48-1.65-2.02c-0.84-0.62-1.79-0.9-2.86-0.9
		c-1.71,0-2.97,0.56-3.86,1.51c-1.04,1.09-1.6,2.69-1.6,4.42c0,2.13,0.78,3.5,1.57,4.28c1.09,1.12,2.35,1.46,3.78,1.46
		c1.85,0,2.83-0.64,3.25-1.01c0.14-0.11,0.98-0.84,1.34-2.21h-4.51V33.64z"/>
	<path class="st0" d="M134.04,38.29h-9.32c0,0.67,0.25,1.57,0.76,2.13c0.62,0.67,1.46,0.78,2.07,0.78c0.59,0,1.2-0.11,1.62-0.36
		c0.06-0.03,0.53-0.34,0.87-1.04l3.81,0.39c-0.56,1.76-1.68,2.69-2.41,3.14c-1.2,0.73-2.55,0.92-3.95,0.92
		c-1.88,0-3.53-0.34-4.98-1.79c-1.09-1.09-1.88-2.74-1.88-4.82c0-1.79,0.64-3.64,1.9-4.93c1.51-1.51,3.39-1.79,4.79-1.79
		s3.42,0.25,4.96,1.88c1.48,1.57,1.76,3.53,1.76,5.07V38.29z M130.32,35.88c-0.03-0.11-0.22-0.9-0.81-1.46
		c-0.45-0.42-1.09-0.7-1.9-0.7c-1.04,0-1.65,0.42-2.04,0.81c-0.31,0.34-0.59,0.78-0.7,1.34H130.32z"/>
	<path class="st0" d="M143.96,34.54c-0.62-0.36-1.43-0.7-2.21-0.7c-0.42,0-0.9,0.11-1.15,0.36c-0.14,0.14-0.25,0.36-0.25,0.56
		c0,0.28,0.2,0.45,0.39,0.56c0.28,0.17,0.7,0.25,1.2,0.42l1.06,0.34c0.7,0.22,1.43,0.5,2.07,1.09c0.73,0.67,0.98,1.43,0.98,2.38
		c0,1.65-0.73,2.72-1.29,3.28c-1.23,1.23-2.74,1.43-4.06,1.43c-1.68,0-3.5-0.36-5.12-1.79l1.71-2.72c0.39,0.34,0.95,0.73,1.37,0.92
		c0.56,0.28,1.15,0.39,1.68,0.39c0.25,0,0.9,0,1.26-0.28c0.25-0.2,0.42-0.5,0.42-0.81c0-0.22-0.08-0.5-0.45-0.73
		c-0.28-0.17-0.64-0.28-1.23-0.45l-1.01-0.31c-0.73-0.22-1.48-0.62-2.02-1.15c-0.59-0.62-0.9-1.32-0.9-2.27
		c0-1.2,0.48-2.21,1.2-2.88c1.12-1.04,2.63-1.26,3.78-1.26c1.85,0,3.14,0.48,4.14,1.06L143.96,34.54z"/>
	<path class="st0" d="M152.24,31.34v6.89c0,0.56,0.06,1.43,0.7,2.02c0.28,0.25,0.78,0.59,1.68,0.59c0.76,0,1.34-0.25,1.71-0.59
		c0.59-0.56,0.67-1.4,0.67-2.02v-6.89h4.03v7.28c0,1.43-0.14,2.77-1.4,4c-1.43,1.4-3.53,1.62-5.01,1.62c-1.54,0-3.61-0.22-5.04-1.62
		c-1.15-1.12-1.37-2.38-1.37-3.75v-7.53H152.24z"/>
	<path class="st0" d="M163.19,31.34h4.03v1.48c1.23-1.57,2.69-1.82,3.86-1.82c1.09,0,2.52,0.2,3.58,1.26
		c1.18,1.18,1.26,2.66,1.26,3.67v7.9h-4.03v-6.41c0-0.81-0.03-1.85-0.67-2.49c-0.31-0.31-0.81-0.56-1.54-0.56
		c-0.84,0-1.37,0.34-1.68,0.67c-0.67,0.67-0.78,1.57-0.78,2.38v6.41h-4.03V31.34z"/>
	<path class="st0" d="M191.86,43.83h-4.03v-1.51c-0.62,0.9-1.74,1.93-3.95,1.93c-1.85,0-3.19-0.59-4.28-1.71
		c-1.29-1.29-1.96-3.08-1.96-5.01c0-2.07,0.76-3.78,1.96-4.93c1.09-1.04,2.63-1.68,4.34-1.68c1.37,0,2.88,0.45,3.89,1.82v-8.01h4.03
		V43.83z M182.76,35.24c-0.59,0.56-0.98,1.37-0.98,2.38c0,0.92,0.39,1.74,0.98,2.3c0.62,0.59,1.4,0.87,2.1,0.87
		c0.76,0,1.65-0.31,2.3-0.92c0.48-0.45,0.92-1.2,0.92-2.24c0-1.06-0.42-1.79-0.9-2.3c-0.64-0.67-1.4-0.92-2.27-0.92
		C184.11,34.4,183.41,34.62,182.76,35.24z"/>
	<path class="st0" d="M194.13,24.74h4.03v8.09c0.5-0.62,1.04-1.04,1.51-1.29c0.84-0.45,1.54-0.53,2.44-0.53
		c0.98,0,2.44,0.14,3.53,1.26c1.15,1.15,1.23,2.69,1.23,3.64v7.92h-4.03v-6.41c0-0.87-0.03-1.88-0.67-2.49
		c-0.36-0.36-0.98-0.56-1.57-0.56c-0.87,0-1.37,0.39-1.6,0.62c-0.81,0.78-0.84,1.99-0.84,2.6v6.24h-4.03V24.74z"/>
	<path class="st0" d="M221.96,38.29h-9.32c0,0.67,0.25,1.57,0.76,2.13c0.62,0.67,1.46,0.78,2.07,0.78c0.59,0,1.2-0.11,1.62-0.36
		c0.06-0.03,0.53-0.34,0.87-1.04l3.81,0.39c-0.56,1.76-1.68,2.69-2.41,3.14c-1.2,0.73-2.55,0.92-3.95,0.92
		c-1.88,0-3.53-0.34-4.98-1.79c-1.09-1.09-1.88-2.74-1.88-4.82c0-1.79,0.64-3.64,1.9-4.93c1.51-1.51,3.39-1.79,4.79-1.79
		s3.42,0.25,4.96,1.88c1.48,1.57,1.76,3.53,1.76,5.07V38.29z M218.24,35.88c-0.03-0.11-0.22-0.9-0.81-1.46
		c-0.45-0.42-1.09-0.7-1.9-0.7c-1.04,0-1.65,0.42-2.04,0.81c-0.31,0.34-0.59,0.78-0.7,1.34H218.24z"/>
	<path class="st0" d="M225.79,24.68c1.48-0.12,2.67,1.07,2.55,2.55c-0.09,1.11-1.03,2.05-2.14,2.14c-1.48,0.12-2.67-1.07-2.55-2.55
		C223.74,25.71,224.68,24.77,225.79,24.68z M228.01,31.34v12.49h-4.03V31.34H228.01z"/>
	<path class="st0" d="M235.32,34.59v9.24h-4.03v-9.24h-1.4v-3.25h1.4v-4.03h4.03v4.03h2.49v3.25H235.32z"/>
	<path class="st0" d="M246.94,34.54c-0.62-0.36-1.43-0.7-2.21-0.7c-0.42,0-0.9,0.11-1.15,0.36c-0.14,0.14-0.25,0.36-0.25,0.56
		c0,0.28,0.2,0.45,0.39,0.56c0.28,0.17,0.7,0.25,1.2,0.42l1.06,0.34c0.7,0.22,1.43,0.5,2.07,1.09c0.73,0.67,0.98,1.43,0.98,2.38
		c0,1.65-0.73,2.72-1.29,3.28c-1.23,1.23-2.74,1.43-4.06,1.43c-1.68,0-3.5-0.36-5.12-1.79l1.71-2.72c0.39,0.34,0.95,0.73,1.37,0.92
		c0.56,0.28,1.15,0.39,1.68,0.39c0.25,0,0.9,0,1.26-0.28c0.25-0.2,0.42-0.5,0.42-0.81c0-0.22-0.08-0.5-0.45-0.73
		c-0.28-0.17-0.64-0.28-1.23-0.45l-1.01-0.31c-0.73-0.22-1.48-0.62-2.02-1.15c-0.59-0.62-0.9-1.32-0.9-2.27
		c0-1.2,0.48-2.21,1.2-2.88c1.12-1.04,2.63-1.26,3.78-1.26c1.85,0,3.14,0.48,4.14,1.06L246.94,34.54z"/>
	<path class="st1" d="M110.19,54.98v15.04h-4.31V54.98h-5.87v-3.64h14.24v3.64H110.19z"/>
	<path class="st1" d="M116.95,51.07c2.13-0.87,4.05,1.06,3.18,3.19c-0.2,0.49-0.6,0.89-1.09,1.09c-2.13,0.87-4.05-1.06-3.18-3.18
		C116.05,51.67,116.46,51.27,116.95,51.07z M120.01,57.53v12.49h-4.03V57.53H120.01z"/>
	<path class="st1" d="M132.02,61.48c-0.98-0.81-1.99-0.95-2.63-0.95c-1.26,0-2.02,0.62-2.3,0.9c-0.53,0.53-0.92,1.34-0.92,2.35
		c0,0.92,0.34,1.71,0.84,2.24c0.62,0.67,1.54,1.01,2.44,1.01c0.7,0,1.65-0.2,2.58-0.98v3.64c-1.06,0.59-2.07,0.76-3.19,0.76
		c-2.1,0-3.7-0.76-4.84-1.88c-0.95-0.92-1.96-2.49-1.96-4.76c0-2.13,0.9-3.81,2.07-4.93c1.4-1.32,3.05-1.76,4.76-1.76
		c1.09,0,2.1,0.2,3.16,0.7V61.48z"/>
	<path class="st1" d="M138.6,51.34v10.78l4.54-4.59h5.29l-5.94,5.66l6.36,6.83h-5.43l-4.82-5.38v5.38h-4.03V51.34H138.6z"/>
	<path class="st1" d="M162.26,64.47h-9.32c0,0.67,0.25,1.57,0.76,2.13c0.62,0.67,1.46,0.78,2.07,0.78c0.59,0,1.2-0.11,1.62-0.36
		c0.06-0.03,0.53-0.34,0.87-1.04l3.81,0.39c-0.56,1.76-1.68,2.69-2.41,3.14c-1.2,0.73-2.55,0.92-3.95,0.92
		c-1.88,0-3.53-0.34-4.98-1.79c-1.09-1.09-1.88-2.74-1.88-4.82c0-1.79,0.64-3.64,1.9-4.93c1.51-1.51,3.39-1.79,4.79-1.79
		s3.42,0.25,4.96,1.88c1.48,1.57,1.76,3.53,1.76,5.07V64.47z M158.54,62.06c-0.03-0.11-0.22-0.9-0.81-1.46
		c-0.45-0.42-1.09-0.7-1.9-0.7c-1.04,0-1.65,0.42-2.04,0.81c-0.31,0.34-0.59,0.78-0.7,1.34H158.54z"/>
	<path class="st1" d="M168.67,60.78v9.24h-4.03v-9.24h-1.4v-3.25h1.4V53.5h4.03v4.03h2.49v3.25H168.67z"/>
</g>
<text transform="matrix(1 0 0 1 100.0071 82.5821)"><tspan x="0" y="0" class="st2 st3 st4">Deutsches Netzwerk für betriebliche </tspan><tspan x="0" y="9.6" class="st2 st3 st4">Gesundheitsvorsorge</tspan></text>
</svg>
